<svg width="345" height="102" viewBox="0 0 345 102" fill="none" xmlns="http://www.w3.org/2000/svg">
<g clip-path="url(#clip0_14_7)">
<path d="M128.219 21H61.6562C57.9814 21 55 23.9814 55 27.6562V29.875H134.875V27.6562C134.875 23.9814 131.894 21 128.219 21ZM55 76.4688C55 80.1436 57.9814 83.125 61.6562 83.125H128.219C131.894 83.125 134.875 80.1436 134.875 76.4688V34.3125H55V76.4688ZM103.812 44.2969C103.812 43.6867 104.312 43.1875 104.922 43.1875H124.891C125.501 43.1875 126 43.6867 126 44.2969V46.5156C126 47.1258 125.501 47.625 124.891 47.625H104.922C104.312 47.625 103.812 47.1258 103.812 46.5156V44.2969ZM103.812 53.1719C103.812 52.5617 104.312 52.0625 104.922 52.0625H124.891C125.501 52.0625 126 52.5617 126 53.1719V55.3906C126 56.0008 125.501 56.5 124.891 56.5H104.922C104.312 56.5 103.812 56.0008 103.812 55.3906V53.1719ZM103.812 62.0469C103.812 61.4367 104.312 60.9375 104.922 60.9375H124.891C125.501 60.9375 126 61.4367 126 62.0469V64.2656C126 64.8758 125.501 65.375 124.891 65.375H104.922C104.312 65.375 103.812 64.8758 103.812 64.2656V62.0469ZM79.4062 43.1875C84.3014 43.1875 88.2812 47.1674 88.2812 52.0625C88.2812 56.9576 84.3014 60.9375 79.4062 60.9375C74.5111 60.9375 70.5312 56.9576 70.5312 52.0625C70.5312 47.1674 74.5111 43.1875 79.4062 43.1875ZM64.3049 71.5043C65.4697 67.9404 68.8117 65.375 72.75 65.375H73.8871C75.5928 66.0822 77.451 66.4844 79.4062 66.4844C81.3615 66.4844 83.2336 66.0822 84.9254 65.375H86.0625C90.0008 65.375 93.3428 67.9404 94.5076 71.5043C94.9514 72.8772 93.7865 74.25 92.3443 74.25H66.4682C65.026 74.25 63.8611 72.8633 64.3049 71.5043Z" fill="white"/>
</g>
<path d="M142.328 25.864H157.368V28.84H145.432V35.88H156.088V38.856H145.432V46.024H157.816V49H142.328V25.864ZM167.843 49.32C166.627 49.32 165.518 49.032 164.515 48.456C163.534 47.8587 162.755 47.0267 162.179 45.96C161.603 44.872 161.315 43.624 161.315 42.216C161.315 40.744 161.614 39.4853 162.211 38.44C162.83 37.3947 163.662 36.5947 164.707 36.04C165.752 35.4853 166.926 35.208 168.227 35.208C169.272 35.208 170.264 35.432 171.203 35.88C172.163 36.328 172.91 36.9467 173.443 37.736L173.315 38.792V24.232H176.259V49H173.283V45.704L173.603 46.536C172.984 47.3467 172.184 48.0187 171.203 48.552C170.222 49.064 169.102 49.32 167.843 49.32ZM168.771 46.792C169.56 46.792 170.264 46.6533 170.883 46.376C171.502 46.0773 172.014 45.672 172.419 45.16C172.824 44.648 173.112 44.04 173.283 43.336V40.84C173.112 40.2 172.803 39.6453 172.355 39.176C171.928 38.6853 171.406 38.3013 170.787 38.024C170.19 37.7253 169.518 37.576 168.771 37.576C167.96 37.576 167.214 37.7787 166.531 38.184C165.87 38.568 165.336 39.1013 164.931 39.784C164.526 40.4667 164.323 41.256 164.323 42.152C164.323 43.0267 164.526 43.816 164.931 44.52C165.336 45.2027 165.88 45.7573 166.563 46.184C167.246 46.5893 167.982 46.792 168.771 46.792ZM185.628 49.512C184.433 49.512 183.441 49.1493 182.652 48.424C181.884 47.6773 181.478 46.7173 181.436 45.544V35.752H184.412V44.488C184.454 45.2133 184.657 45.8 185.02 46.248C185.404 46.696 186.001 46.9307 186.812 46.952C187.558 46.952 188.22 46.7387 188.796 46.312C189.393 45.864 189.873 45.2667 190.236 44.52C190.598 43.752 190.78 42.888 190.78 41.928V35.752H193.756V49H191.036L190.78 45.736L190.94 46.312C190.684 46.9307 190.289 47.4853 189.756 47.976C189.244 48.4453 188.636 48.8187 187.932 49.096C187.228 49.3733 186.46 49.512 185.628 49.512ZM199.641 25.864H202.745V49H199.641V25.864ZM209.391 49V25.864H215.695C217.977 25.864 219.919 26.216 221.519 26.92C223.14 27.624 224.441 28.552 225.423 29.704C226.404 30.856 227.119 32.136 227.567 33.544C228.036 34.9307 228.271 36.3173 228.271 37.704C228.271 39.4533 227.961 41.0213 227.343 42.408C226.745 43.7947 225.913 44.9787 224.847 45.96C223.78 46.9413 222.553 47.6987 221.167 48.232C219.801 48.744 218.351 49 216.815 49H209.391ZM212.495 46.024H216.207C217.487 46.024 218.66 45.832 219.727 45.448C220.815 45.064 221.753 44.5093 222.543 43.784C223.353 43.0587 223.983 42.1733 224.431 41.128C224.879 40.0613 225.103 38.856 225.103 37.512C225.103 36.0827 224.868 34.8347 224.399 33.768C223.929 32.68 223.289 31.7733 222.479 31.048C221.668 30.3227 220.751 29.7787 219.727 29.416C218.703 29.032 217.625 28.84 216.495 28.84H212.495V46.024Z" fill="white"/>
<path d="M141.496 75V57.648H146.224C147.936 57.648 149.392 57.912 150.592 58.44C151.808 58.968 152.784 59.664 153.52 60.528C154.256 61.392 154.792 62.352 155.128 63.408C155.48 64.448 155.656 65.488 155.656 66.528C155.656 67.84 155.424 69.016 154.96 70.056C154.512 71.096 153.888 71.984 153.088 72.72C152.288 73.456 151.368 74.024 150.328 74.424C149.304 74.808 148.216 75 147.064 75H141.496ZM143.824 72.768H146.608C147.568 72.768 148.448 72.624 149.248 72.336C150.064 72.048 150.768 71.632 151.36 71.088C151.968 70.544 152.44 69.88 152.776 69.096C153.112 68.296 153.28 67.392 153.28 66.384C153.28 65.312 153.104 64.376 152.752 63.576C152.4 62.76 151.92 62.08 151.312 61.536C150.704 60.992 150.016 60.584 149.248 60.312C148.48 60.024 147.672 59.88 146.824 59.88H143.824V72.768ZM159.014 65.064H161.246V75H159.014V65.064ZM158.846 61.464C158.846 61.112 158.982 60.816 159.254 60.576C159.542 60.336 159.854 60.216 160.19 60.216C160.526 60.216 160.822 60.336 161.078 60.576C161.35 60.816 161.486 61.112 161.486 61.464C161.486 61.832 161.35 62.136 161.078 62.376C160.822 62.6 160.526 62.712 160.19 62.712C159.854 62.712 159.542 62.592 159.254 62.352C158.982 62.112 158.846 61.816 158.846 61.464ZM169.884 79.92C169.148 79.92 168.5 79.832 167.94 79.656C167.38 79.496 166.868 79.264 166.404 78.96C165.956 78.656 165.524 78.312 165.108 77.928L166.404 76.416C166.932 76.912 167.468 77.296 168.012 77.568C168.556 77.84 169.164 77.976 169.836 77.976C170.588 77.976 171.22 77.848 171.732 77.592C172.26 77.352 172.66 77.008 172.932 76.56C173.204 76.128 173.34 75.624 173.34 75.048L173.364 72.36L173.556 72.792C173.268 73.48 172.748 74.064 171.996 74.544C171.244 75.008 170.332 75.24 169.26 75.24C168.348 75.24 167.508 75.008 166.74 74.544C165.988 74.08 165.38 73.456 164.916 72.672C164.468 71.872 164.244 70.976 164.244 69.984C164.244 68.944 164.484 68.032 164.964 67.248C165.444 66.448 166.076 65.816 166.86 65.352C167.644 64.888 168.5 64.656 169.428 64.656C170.308 64.656 171.108 64.84 171.828 65.208C172.564 65.56 173.1 66.016 173.436 66.576L173.316 66.984L173.556 65.064H175.596V75.072C175.596 75.968 175.364 76.784 174.9 77.52C174.436 78.256 173.78 78.84 172.932 79.272C172.084 79.704 171.068 79.92 169.884 79.92ZM166.476 69.936C166.476 70.576 166.628 71.16 166.932 71.688C167.236 72.216 167.644 72.632 168.156 72.936C168.684 73.24 169.268 73.392 169.908 73.392C170.5 73.392 171.028 73.288 171.492 73.08C171.972 72.856 172.372 72.56 172.692 72.192C173.012 71.808 173.236 71.368 173.364 70.872V68.904C173.22 68.424 172.98 68.008 172.644 67.656C172.308 67.288 171.908 67.008 171.444 66.816C170.98 66.608 170.468 66.504 169.908 66.504C169.268 66.504 168.684 66.648 168.156 66.936C167.644 67.224 167.236 67.632 166.932 68.16C166.628 68.672 166.476 69.264 166.476 69.936ZM179.452 65.064H181.684V75H179.452V65.064ZM179.284 61.464C179.284 61.112 179.42 60.816 179.692 60.576C179.98 60.336 180.292 60.216 180.628 60.216C180.964 60.216 181.26 60.336 181.516 60.576C181.788 60.816 181.924 61.112 181.924 61.464C181.924 61.832 181.788 62.136 181.516 62.376C181.26 62.6 180.964 62.712 180.628 62.712C180.292 62.712 179.98 62.592 179.692 62.352C179.42 62.112 179.284 61.816 179.284 61.464ZM186.506 60.696H188.738V65.112H191.474V66.864H188.738V75H186.506V66.864H184.682V65.112H186.506V60.696ZM198.299 75.24C197.371 75.24 196.523 75.04 195.755 74.64C195.003 74.24 194.403 73.656 193.955 72.888C193.523 72.104 193.307 71.152 193.307 70.032C193.307 68.928 193.539 67.976 194.003 67.176C194.467 66.36 195.083 65.736 195.851 65.304C196.635 64.872 197.491 64.656 198.419 64.656C199.347 64.656 200.131 64.872 200.771 65.304C201.411 65.72 201.899 66.216 202.235 66.792L202.091 67.176L202.307 65.064H204.371V75H202.139V72.408L202.379 72.984C202.315 73.144 202.171 73.352 201.947 73.608C201.739 73.848 201.451 74.096 201.083 74.352C200.731 74.608 200.323 74.824 199.859 75C199.395 75.16 198.875 75.24 198.299 75.24ZM198.899 73.392C199.459 73.392 199.963 73.288 200.411 73.08C200.859 72.872 201.227 72.584 201.515 72.216C201.819 71.832 202.027 71.376 202.139 70.848V68.904C202.011 68.424 201.787 68.008 201.467 67.656C201.147 67.288 200.763 67.008 200.315 66.816C199.867 66.608 199.371 66.504 198.827 66.504C198.235 66.504 197.691 66.648 197.195 66.936C196.699 67.224 196.299 67.624 195.995 68.136C195.707 68.648 195.563 69.248 195.563 69.936C195.563 70.576 195.715 71.16 196.019 71.688C196.323 72.216 196.731 72.632 197.243 72.936C197.755 73.24 198.307 73.392 198.899 73.392ZM208.233 56.424H210.465V75H208.233V56.424ZM220.961 57.744H223.649L228.353 70.992L227.945 70.824L231.377 61.944L232.457 65.088L227.873 75.792L220.961 57.744ZM229.289 57.744H231.617L236.705 70.8L236.225 70.704L240.713 57.744H243.185L236.369 75.768L229.289 57.744ZM248.01 75.24C247.082 75.24 246.234 75.04 245.465 74.64C244.714 74.24 244.114 73.656 243.666 72.888C243.234 72.104 243.018 71.152 243.018 70.032C243.018 68.928 243.25 67.976 243.714 67.176C244.178 66.36 244.794 65.736 245.562 65.304C246.346 64.872 247.202 64.656 248.13 64.656C249.058 64.656 249.842 64.872 250.482 65.304C251.122 65.72 251.61 66.216 251.946 66.792L251.802 67.176L252.018 65.064H254.082V75H251.85V72.408L252.09 72.984C252.026 73.144 251.882 73.352 251.658 73.608C251.45 73.848 251.162 74.096 250.794 74.352C250.442 74.608 250.034 74.824 249.57 75C249.106 75.16 248.586 75.24 248.01 75.24ZM248.61 73.392C249.17 73.392 249.674 73.288 250.122 73.08C250.57 72.872 250.938 72.584 251.226 72.216C251.53 71.832 251.738 71.376 251.85 70.848V68.904C251.722 68.424 251.498 68.008 251.178 67.656C250.858 67.288 250.474 67.008 250.026 66.816C249.578 66.608 249.082 66.504 248.538 66.504C247.946 66.504 247.402 66.648 246.906 66.936C246.41 67.224 246.01 67.624 245.706 68.136C245.418 68.648 245.274 69.248 245.274 69.936C245.274 70.576 245.426 71.16 245.73 71.688C246.034 72.216 246.442 72.632 246.954 72.936C247.466 73.24 248.018 73.392 248.61 73.392ZM257.944 56.424H260.176V75H257.944V56.424ZM264.038 56.424H266.27V75H264.038V56.424ZM274.74 75.24C273.604 75.24 272.628 75.016 271.812 74.568C270.996 74.104 270.364 73.48 269.916 72.696C269.484 71.896 269.268 70.984 269.268 69.96C269.268 68.984 269.516 68.096 270.012 67.296C270.508 66.496 271.172 65.856 272.004 65.376C272.836 64.896 273.764 64.656 274.788 64.656C276.1 64.656 277.188 65.04 278.052 65.808C278.916 66.576 279.5 67.632 279.804 68.976L271.62 71.856L271.092 70.536L277.812 68.088L277.332 68.4C277.14 67.872 276.82 67.416 276.372 67.032C275.924 66.632 275.34 66.432 274.62 66.432C274.012 66.432 273.468 66.584 272.988 66.888C272.508 67.176 272.132 67.576 271.86 68.088C271.588 68.6 271.452 69.184 271.452 69.84C271.452 70.528 271.596 71.136 271.884 71.664C272.172 72.176 272.564 72.584 273.06 72.888C273.572 73.176 274.148 73.32 274.788 73.32C275.22 73.32 275.636 73.24 276.036 73.08C276.452 72.92 276.836 72.712 277.188 72.456L278.22 74.112C277.724 74.448 277.164 74.72 276.54 74.928C275.932 75.136 275.332 75.24 274.74 75.24ZM283.56 60.696H285.792V65.112H288.528V66.864H285.792V75H283.56V66.864H281.736V65.112H283.56V60.696Z" fill="white"/>
<defs>
<clipPath id="clip0_14_7">
<rect width="79.875" height="71" fill="white" transform="translate(55 21)"/>
</clipPath>
</defs>
</svg>
